<svg width="55" height="27" viewBox="0 0 55 27" fill="none" xmlns="http://www.w3.org/2000/svg">
<rect width="24" height="24" rx="9" fill="#258D9B"/>
<path d="M7.75 8.71C8.04 8.71 8.26 8.75 8.41 8.83C8.56 8.91 8.635 9.015 8.635 9.145C8.825 9.115 8.99 9.095 9.13 9.085C9.28 9.075 9.445 9.07 9.625 9.07C10.345 9.07 10.95 9.245 11.44 9.595C11.94 9.945 12.31 10.405 12.55 10.975C12.8 11.545 12.925 12.16 12.925 12.82C12.925 12.99 12.92 13.115 12.91 13.195C12.82 14.395 12.52 15.455 12.01 16.375C11.5 17.285 10.825 17.99 9.985 18.49C9.155 18.99 8.22 19.24 7.18 19.24C6.89 19.24 6.535 19.205 6.115 19.135C5.955 19.105 5.765 19 5.545 18.82C5.335 18.63 5.155 18.415 5.005 18.175C4.855 17.935 4.78 17.72 4.78 17.53C4.78 17.42 4.795 17.315 4.825 17.215L6.4 11.14C5.83 11.31 5.35 11.53 4.96 11.8C4.84 11.68 4.75 11.53 4.69 11.35C4.63 11.17 4.6 10.985 4.6 10.795C4.6 10.575 4.69 10.38 4.87 10.21C5.34 9.91 5.99 9.655 6.82 9.445C7.01 8.955 7.32 8.71 7.75 8.71ZM6.7 17.575C6.94 17.635 7.2 17.665 7.48 17.665C8.18 17.665 8.78 17.475 9.28 17.095C9.78 16.705 10.17 16.215 10.45 15.625C10.74 15.035 10.93 14.425 11.02 13.795C11.06 13.545 11.08 13.265 11.08 12.955C11.08 12.255 10.925 11.705 10.615 11.305C10.305 10.895 9.825 10.69 9.175 10.69C8.895 10.69 8.64 10.71 8.41 10.75C8.23 11.53 7.85 13.055 7.27 15.325C6.96 16.545 6.77 17.295 6.7 17.575ZM15.9948 19.315C15.0148 19.315 14.2998 19.12 13.8498 18.73C13.3998 18.34 13.1748 17.82 13.1748 17.17C13.1748 16.22 13.4098 15.34 13.8798 14.53C14.3598 13.72 14.9948 13.08 15.7848 12.61C16.5848 12.13 17.4448 11.89 18.3648 11.89C18.9248 11.89 19.3948 12.05 19.7748 12.37C20.1548 12.68 20.3448 13.14 20.3448 13.75C20.3448 14.1 20.2298 14.39 19.9998 14.62C19.7798 14.84 19.4598 15.04 19.0398 15.22C18.6198 15.39 17.9398 15.635 16.9998 15.955C16.1498 16.235 15.4598 16.47 14.9298 16.66C14.8898 16.81 14.8698 16.965 14.8698 17.125C14.8698 17.405 14.9848 17.62 15.2148 17.77C15.4548 17.92 15.7898 17.995 16.2198 17.995C16.4898 17.995 16.7998 17.94 17.1498 17.83C17.4998 17.72 17.7198 17.58 17.8098 17.41C18.1498 16.79 18.4598 16.48 18.7398 16.48C19.1498 16.48 19.4248 16.56 19.5648 16.72C19.7148 16.87 19.7948 17.04 19.8048 17.23C19.6848 17.55 19.4498 17.875 19.0998 18.205C18.7498 18.525 18.3048 18.79 17.7648 19C17.2248 19.21 16.6348 19.315 15.9948 19.315ZM15.3498 15.28C16.3398 14.96 17.1548 14.665 17.7948 14.395C18.4348 14.115 18.7548 13.84 18.7548 13.57C18.7548 13.45 18.6898 13.355 18.5598 13.285C18.4298 13.205 18.2898 13.165 18.1398 13.165C17.8398 13.165 17.4948 13.28 17.1048 13.51C16.7248 13.74 16.3698 14.02 16.0398 14.35C15.7098 14.68 15.4798 14.99 15.3498 15.28ZM22.7099 19.315C22.3699 19.245 22.1299 19.175 21.9899 19.105C21.8499 19.035 21.7599 18.94 21.7199 18.82C21.6799 18.7 21.6549 18.495 21.6449 18.205C21.6149 17.525 21.5699 16.85 21.5099 16.18C21.4999 16.02 21.4699 15.545 21.4199 14.755C21.3699 13.965 21.3449 13.215 21.3449 12.505C21.3449 12.325 21.4349 12.175 21.6149 12.055C21.8049 11.935 22.0399 11.875 22.3199 11.875C22.8599 11.875 23.1299 12.12 23.1299 12.61L23.1449 16.72V17.77C23.8149 16.51 24.5699 15.21 25.4099 13.87C26.2599 12.53 26.8099 11.86 27.0599 11.86C27.3799 11.86 27.6499 11.925 27.8699 12.055C28.0899 12.175 28.2049 12.315 28.2149 12.475C28.1249 12.645 27.9299 12.955 27.6299 13.405C27.5099 13.575 27.2949 13.905 26.9849 14.395L26.4599 15.22C25.6199 16.53 25.0349 17.43 24.7049 17.92C24.3749 18.4 24.0949 18.745 23.8649 18.955C23.7549 19.055 23.5949 19.14 23.3849 19.21C23.1749 19.28 22.9499 19.315 22.7099 19.315ZM33.8976 16.78C34.0576 16.85 34.1876 16.965 34.2876 17.125C34.3976 17.275 34.4526 17.43 34.4526 17.59C34.4526 17.77 34.3626 17.945 34.1826 18.115C34.0026 18.285 33.7976 18.405 33.5676 18.475C33.0376 18.535 32.3926 18.625 31.6326 18.745C30.8726 18.855 30.2076 18.97 29.6376 19.09C29.5476 19.15 29.3526 19.18 29.0526 19.18C28.7726 19.18 28.5226 19.05 28.3026 18.79C28.0926 18.53 27.9876 18.26 27.9876 17.98C27.9876 17.87 28.0026 17.765 28.0326 17.665L29.9226 10.27C30.0326 9.83 30.1476 9.54 30.2676 9.4C30.3976 9.25 30.6276 9.175 30.9576 9.175C31.2276 9.175 31.4576 9.205 31.6476 9.265C31.8476 9.325 31.9526 9.415 31.9626 9.535L30.0726 17.38C31.7526 17.05 33.0276 16.85 33.8976 16.78ZM36.5963 10.09C36.5963 9.78 36.6913 9.505 36.8813 9.265C37.0813 9.025 37.3563 8.905 37.7063 8.905C38.0763 8.905 38.3963 9.02 38.6663 9.25C38.9463 9.48 39.0863 9.74 39.0863 10.03C39.0863 10.32 38.9463 10.57 38.6663 10.78C38.3863 10.99 38.0613 11.095 37.6913 11.095C37.3313 11.095 37.0563 11.005 36.8663 10.825C36.6863 10.635 36.5963 10.39 36.5963 10.09ZM35.1713 17.995C35.1713 17.815 35.6163 16.015 36.5063 12.595L36.4163 12.04C36.4163 11.93 36.4813 11.845 36.6113 11.785C36.7413 11.725 36.9913 11.695 37.3613 11.695C37.6513 11.695 37.8613 11.775 37.9913 11.935C38.1313 12.095 38.2013 12.285 38.2013 12.505C38.2013 12.565 38.1913 12.645 38.1713 12.745L36.8363 18.145L36.9263 18.7C36.9263 18.81 36.8613 18.895 36.7313 18.955C36.6013 19.015 36.3513 19.045 35.9813 19.045C35.6513 19.045 35.4363 18.95 35.3363 18.76C35.2363 18.56 35.1813 18.305 35.1713 17.995ZM40.5768 11.725C41.0668 11.475 41.4568 11.35 41.7468 11.35C42.0868 11.35 42.2768 11.525 42.3168 11.875L41.8218 13.72C42.0318 13.43 42.3418 13.145 42.7518 12.865C43.1618 12.585 43.5718 12.355 43.9818 12.175C44.4018 11.995 44.7368 11.905 44.9868 11.905C45.5168 11.905 45.9018 12.005 46.1418 12.205C46.3818 12.395 46.5018 12.7 46.5018 13.12C46.4018 13.68 46.2518 14.355 46.0518 15.145C45.8518 15.925 45.7268 16.42 45.6768 16.63C45.4568 17.45 45.3018 18.065 45.2118 18.475C45.1518 18.725 45.0918 18.9 45.0318 19C44.9818 19.09 44.8868 19.155 44.7468 19.195C44.6168 19.235 44.3868 19.255 44.0568 19.255C43.8768 19.255 43.7068 19.225 43.5468 19.165C43.3968 19.105 43.3218 19.005 43.3218 18.865C43.3518 18.535 43.4518 18.03 43.6218 17.35C43.8018 16.66 44.0418 15.77 44.3418 14.68C44.5418 14 44.6418 13.63 44.6418 13.57C44.6418 13.43 44.5618 13.36 44.4018 13.36C44.1718 13.36 43.8268 13.52 43.3668 13.84C42.9068 14.15 42.4318 14.675 41.9418 15.415C41.4518 16.145 41.0668 17.1 40.7868 18.28C40.7668 18.34 40.7418 18.45 40.7118 18.61C40.6818 18.77 40.6018 18.885 40.4718 18.955C40.3418 19.015 40.1318 19.045 39.8418 19.045C39.5118 19.045 39.2668 19.01 39.1068 18.94C38.9568 18.87 38.8818 18.72 38.8818 18.49L39.0468 17.845C39.6368 15.535 40.1468 13.495 40.5768 11.725ZM50.7327 15.715C50.8527 16.055 51.2477 16.505 51.9177 17.065C52.5977 17.615 53.3227 18.15 54.0927 18.67C54.0927 18.85 53.9777 19.05 53.7477 19.27C53.5277 19.5 53.3277 19.615 53.1477 19.615C52.9877 19.615 52.8627 19.595 52.7727 19.555C52.5327 19.465 52.1677 19.23 51.6777 18.85C51.1877 18.46 50.7177 18.025 50.2677 17.545C49.8177 17.065 49.5077 16.63 49.3377 16.24C49.0877 17.33 48.9077 18.07 48.7977 18.46C48.6977 18.85 48.6177 19.095 48.5577 19.195C48.4977 19.295 48.4127 19.345 48.3027 19.345L47.9277 19.36C47.2777 19.36 46.9277 19.095 46.8777 18.565C47.0477 18.145 47.1827 17.74 47.2827 17.35C48.2627 13.47 48.9627 10.51 49.3827 8.47C49.3927 8.11 49.4577 7.87 49.5777 7.75C49.7077 7.63 49.9227 7.57 50.2227 7.57C50.4727 7.57 50.6927 7.65 50.8827 7.81C51.0727 7.97 51.1677 8.165 51.1677 8.395C51.1677 8.445 51.1577 8.52 51.1377 8.62L49.6827 14.74C49.9527 14.42 50.4227 14 51.0927 13.48C51.7727 12.96 52.2977 12.615 52.6677 12.445C52.7277 12.445 52.9327 12.495 53.2827 12.595C53.6427 12.685 53.8527 12.775 53.9127 12.865C53.9327 12.895 53.9527 13 53.9727 13.18C53.9527 13.42 53.9277 13.555 53.8977 13.585C53.7477 13.675 53.4277 13.875 52.9377 14.185C52.4477 14.485 51.9677 14.795 51.4977 15.115C51.0277 15.425 50.7727 15.625 50.7327 15.715Z" fill="white"/>
</svg>
